<svg enable-background="new 0 0 140 140" height="512" viewBox="0 0 140 140" width="512" xmlns="http://www.w3.org/2000/svg"><circle cx="70" cy="70" fill="#de594e" r="64"/><path d="m133.8466949 65.7393875c.0899658 1.3598633.1499634 2.7397461.1499634 4.1298828v.2597656c-.0700073 35.2802734-28.6800003 63.85009-63.9599686 63.8701096h-.0700073c-1.4299927 0-2.8300171-.0600586-4.2399902-.1601562l-27.1900024-27.1899338v-73.2998085h62.9199829z" opacity=".1"/><path d="m38.541416 33.352844h62.917168v73.294312h-62.917168z" fill="#feda6f"/><g fill="#467082"><path d="m43.002213 54.478706h53.995575v2.817161h-53.995575z"/><path d="m49.8118134 50.402729v-10.0649147h1.3662453l5.2864838 7.9022636v-7.9022636h1.2769928v10.0649147h-1.3662453l-5.2864838-7.9091263v7.9091263z"/><path d="m60.0071716 50.402729v-10.0649147h7.2774963v1.1877441h-5.9455757v3.0826378h5.5679741v1.1808739h-5.5679741v3.4259186h6.1790047v1.1877403z"/><path d="m71.115654 50.402729-2.6707077-10.0649147h1.3662491l1.5310211 6.597805c.164772.6911354.3066635 1.3776932.4256668 2.0596695.2563171-1.0756035.4073563-1.6957932.453125-1.8605652l1.9154968-6.7969093h1.6065369l1.4417725 5.0942497c.3615875 1.2632637.6224747 2.451004.7826691 3.5632248.1281586-.6362076.2952194-1.3662453.5011902-2.1901131l1.5790787-6.4673615h1.3387833l-2.7599565 10.0649148h-1.2838593l-2.12146-7.6688309c-.1785049-.640789-.2837753-1.0344124-.3158188-1.1808777-.1052704.4622803-.2036743.8559074-.2952194 1.1808777l-2.1351852 7.6688309z"/><path d="m82.1760788 47.1690483 1.2563934-.109848c.0595016.5034752.1979599.9165535.4153671 1.2392349.2174149.3226814.5549698.5835724 1.0126724.7826729.4577026.1991043.9726181.2986526 1.544754.2986526.508049 0 .9565964-.0755196 1.3456497-.2265625.3890457-.1510429.6785431-.3581543.8684921-.6213341s.2849197-.5503883.2849197-.8616295c0-.315815-.0915375-.5915794-.2746201-.8272972s-.4851685-.4336777-.9062576-.5938721c-.2700424-.1052742-.8673477-.2689018-1.7919083-.4908867-.9245682-.2219887-1.5722198-.4313889-1.942955-.6282005-.4805908-.2517357-.8387451-.5641212-1.0744629-.937149s-.3535767-.7906837-.3535767-1.252964c0-.5080528.1441803-.9829216.4325333-1.4246063s.7094421-.7769547 1.2632599-1.005806c.5538254-.2288513 1.1694336-.343277 1.8468399-.343277.7460556 0 1.404007.1201477 1.9738464.3604431s1.0080948.5938683 1.3147583 1.06073c.3066635.4668579.4714355.9955063.4943161 1.5859451l-1.2769928.0961151c-.0686569-.6362076-.3009415-1.1167984-.6968536-1.4417686s-.980629-.4874535-1.7541504-.4874535c-.8055573 0-1.3925629.1476097-1.7610168.4428291s-.552681.6510849-.552681 1.0675964c0 .3615837.1304474.6590919.3913422.8925209.2563095.233429.925705.47258 2.0081711.717453 1.0824738.2448692 1.8250961.458847 2.2278748.6419296.5858612.2700462 1.0183945.6121788 1.2975922 1.0264015.2792053.4142227.4188004.8913803.4188004 1.431469 0 .5355148-.1533279 1.0401344-.4599915 1.5138588-.3066635.4737206-.7472.8421745-1.3216171 1.1053543-.5744247.2631798-1.220932.3947716-1.9395218.3947716-.9108353 0-1.674057-.1327362-2.2896652-.3982048-.6156158-.2654686-1.0984955-.664814-1.4486389-1.19804s-.5343704-1.1362494-.5526733-1.8090781z"/><path d="m43.002213 61.200207h24.515888v3.304268h-24.515888z"/><path d="m43.002213 69.058388h24.515888v3.304268h-24.515888z"/><path d="m43.002213 76.916573h24.515888v3.304268h-24.515888z"/><path d="m43.002213 84.774757h24.515888v3.304268h-24.515888z"/><path d="m43.002213 92.632942h53.995575v3.304268h-53.995575z"/><path d="m71.437805 61.200207h25.559982v26.997788h-25.559982z"/></g><path d="m92.9556198 84.0422516c-.1435852-1.1404572-.5656281-4.3490829-.8653336-5.1480942-.3662262-.9768143-4.3755951-2.6881256-4.3755951-2.6881256h-.0000458c-.2475052-.6844635-.6200638-1.2550049-.7716675-1.4727707-.0419769-.060112-.1096344-.0944138-.1830368-.0944138h-.2205963l.0000763-.0009384c.2890091-.2781906.6022491-.6998825.7299347-1.3009491v-.6369476c.0097122.0022049.0182114.0078735.0281677.0091324.3906937.0512924.8033752-.4663773.9217758-1.1568222.1183701-.6901245-.1023941-1.2915039-.4931259-1.342804-.0187607-.0025177-.0376053.0025177-.0564117.0025177.0898056-.5031967.1787872-1.3834.0168762-2.5049667-.19841-1.3742752-1.5150604-2.0360794-2.7508621-2.2991638-.2767792-.0588455-1.2698364-.0692368-1.5073547-.0232849-1.2676239.2460861-2.6603851.9056854-2.8649368 2.3224487-.1617584 1.1206284-.0730896 1.9995651.0166397 2.5033951-.0063324.0006256-.0127106-.0018921-.019043-.000946-.3906937.0513-.6114883.6526794-.4930878 1.342804.1183624.6904449.5310516 1.2081146.9217834 1.1568222.0099487-.0012589.0184097-.0069275.0281219-.0091324v.6369476c.1278458.6016922.4417572 1.0240173.731041 1.3018875h-.0733261c-.0734024 0-.141098.0343018-.183075.0944138-.1516037.2177658-.5241241.7883072-.7716675 1.4727707h-.0000458s-4.0093689 1.7113113-4.3755951 2.6881256c-.2996674.7990112-.7217102 4.007637-.8652496 5.1480942h3.3037033l.094368-.326973-.0098724.326973h10.699234l-.0099487-.326973.0944443.326973h3.303711z" fill="#ededed"/></svg>